<?xml version="1.0" encoding="utf-8"?>
<?xml-stylesheet type="text/xsl" href="rss1.xsl"?>
<rss version="2.0" xmlns:atom="http://www.w3.org/2005/Atom" xmlns:content="http://purl.org/rss/1.0/modules/content/" xmlns:dc="http://purl.org/dc/elements/1.1/" xmlns:media="http://search.yahoo.com/mrss/">
<channel>
 <title>Getty</title>
 <link>http://www.gettyimg.com/</link>
 <atom:link href="http://www.gettyimg.com/" rel="self" type="application/rss+xml" />

 
                <item>
                <title><![CDATA[【Albums (lossy)】PACK - Katy Perry Albums Pack (Dolby Atmos)]]></title>
                <link><![CDATA[https://sharemania.us/threads/katy-perry-albums-pack-dolby-atmos.244243/]]></link>
                <description><![CDATA[<article>
<blockquote class="messageText SelectQuoteContainer ugc baseHtml">
<img src="https://miro.medium.com/v2/resize:fit:1174/1*zcOoPR0Z9c_Lah3fNnT2Fg.jpeg" class="bbCodeImage LbImage" alt="[​IMG]" data-url="https://miro.medium.com/v2/resize:fit:1174/1*zcOoPR0Z9c_Lah3fNnT2Fg.jpeg" style=""> <br>
Album List:<br>
1. One of the Boys (15th Anniversary Edition)<br>
2. Teenage Dream - The Complete Confection<br>
3. PRISM (Deluxe Edition)<br>
4. Witness (Deluxe) [Missing Track 8 as it's not in Atmos]<br>
5. Smile [Missing Track 9 as it's not in Atmos]<br>
<br>
Source: Apple Music/Tidal<br>
Format: .m4a E-AC3 JOC<br>
<div class="bbCodeBlock bbCodeVfcHH HiddenContent">
<div class="attribution type">Hidden Content:</div>
<blockquote>You must reply before you can see the hidden data contained here.</blockquote>
</div>
<div class="messageTextEndMarker">&nbsp;</div>
</blockquote>
</article>]]></description>
                <author><![CDATA[BbbDdd345]]></author>
                </item>

                
                <item>
                <title><![CDATA[【Cinema Center】MOVIE - Turtles.All.the.Way.Down.2024.1080p.MAX.WEB-DL.DDP5.1.Atmos.x264-Samuel]]></title>
                <link><![CDATA[https://sharemania.us/threads/turtles-all-the-way-down-2024-1080p-max-web-dl-ddp5-1-atmos-x264-samuel.244242/]]></link>
                <description><![CDATA[<article>
<blockquote class="messageText SelectQuoteContainer ugc baseHtml">
<div style="text-align: center"><b><span style="font-size: 26px">Turtles All the Way Down</span></b><br>
<img src="https://i.imgur.com/DDFgisg.jpeg" class="bbCodeImage LbImage" alt="[​IMG]" data-url="https://i.imgur.com/DDFgisg.jpeg" style=""><br>
<b><a href="https://i.imgur.com/3ypoYRR.jpeg" target="_blank" class="externalLink" rel="nofollow">Alternate Artwork 1</a></b> | <b><a href="https://i.imgur.com/UG5Ticl.jpg" target="_blank" class="externalLink" rel="nofollow">Alternate Artwork 2</a></b> | <b><a href="https://i.imgur.com/7dEurzR.jpg" target="_blank" class="externalLink" rel="nofollow">Alternate Artwork 3</a></b> | <b><a href="https://i.imgur.com/CSr1Yxl.jpeg" target="_blank" class="externalLink" rel="nofollow">Poster 1</a></b> | <b><a href="https://i.imgur.com/uZ4fI2n.jpg" target="_blank" class="externalLink" rel="nofollow">Poster 2</a></b> | <b><a href="https://i.imgur.com/prIWYHF.jpeg" target="_blank" class="externalLink" rel="nofollow">Key Art</a></b><br>
<br>
PG‑13 • 1h 52m • 2024 • <img src="https://i.imgur.com/lzcgXMm.png" class="bbCodeImage LbImage" alt="[​IMG]" data-url="https://i.imgur.com/lzcgXMm.png" style=""> <img src="https://i.imgur.com/fxXorAB.png" class="bbCodeImage LbImage" alt="[​IMG]" data-url="https://i.imgur.com/fxXorAB.png" style=""><br>
Teen Dramas • Romantic Dramas<br>
<br>
<div class="bbCodeBlock bbCodeQuote">
<aside>
<blockquote class="quoteContainer"><div class="quote"><b><span style="font-size: 15px"><span style="font-family: 'Arial'">Description</span></span></b><br>
Teenager Aza reconnects with her childhood crush as she deals with anxiety and obsessive-compulsive disorder. Based on John Green's bestselling novel.</div><div class="quoteExpand">Click to expand...</div></blockquote>
</aside>
</div>
<div class="bbCodeBlock bbCodeQuote">
<aside>
<blockquote class="quoteContainer"><div class="quote"><span style="font-family: 'Arial'"><span style="font-size: 15px"><b>Trailers &amp; Clips</b></span></span><br>
<span data-s9e-mediaembed="googledrive" style="display:inline-block;width:100%;max-width:640px"><span style="display:block;overflow:hidden;position:relative;padding-bottom:75%"><iframe allowfullscreen="" loading="lazy" scrolling="no" src="//drive.google.com/file/d/1Qu2WsiOZfEzhzUmYocvYRT-7u46xdWbV/preview" style="border:0;height:100%;left:0;position:absolute;width:100%"></iframe></span></span></div><div class="quoteExpand quoteCut">Click to expand...</div></blockquote>
</aside>
</div>
<div class="bbCodeBlock bbCodeQuote">
<aside>
<blockquote class="quoteContainer"><div class="quote"><b><span style="font-size: 15px"><span style="font-family: 'Arial'">Details</span></span></b><br>
<b>Rating Information</b><br>
PG‑13<br>
<br>
<b>Subtitle Languages</b><br>
Spanish (Spain), Bulgarian, Portuguese (Brazil), English - CC, Spanish, Macedonian, Czech<br>
<br>
<b>Audio Languages</b><br>
English - Audio Description, Spanish (Spain), Spanish, Czech, Portuguese (Brazil), English<br>
<br>
<b>Starring</b><br>
Isabela Merced, Cree Cicchino, Felix Mallard, Maliq Johnson, Poorna Jagannathan, Judy Reyes, J. Smith-Cameron, Hannah Marks<br>
<br>
<b>Director</b><br>
Hannah Marks<br>
<br>
<b>Producers</b><br>
Richard Brener, Nikki Ramey, Paulina Sussman, Laura Quicksilver, Bart Lipton, John Green, Rosianna Rojas, Elizabeth Berger, Isaac Aptaker, Wyck Godfrey, Marty Bowen, Isaac Klausner<br>
<br>
<b>Based On Source Material By</b><br>
John Green</div><div class="quoteExpand quoteCut">Click to expand...</div></blockquote>
</aside>
</div>
<div class="bbCodeBlock bbCodeQuote">
<aside>
<blockquote class="quoteContainer"><div class="quote"><b><span style="font-size: 15px"><span style="font-family: 'Arial'">Source</span></span></b><br>
<img src="https://i.imgur.com/CCXkKzZ.png" class="bbCodeImage LbImage" alt="[​IMG]" data-url="https://i.imgur.com/CCXkKzZ.png" style=""></div><div class="quoteExpand">Click to expand...</div></blockquote>
</aside>
</div>
<div class="bbCodeBlock bbCodeQuote">
<aside>
<blockquote class="quoteContainer"><div class="quote"><b><span style="font-size: 15px">Release Name</span></b><br>
Turtles.All.the.Way.Down.2024.1080p.MAX.WEB-DL.DDP5.1.Atmos.x264-Samuel</div><div class="quoteExpand">Click to expand...</div></blockquote>
</aside>
</div>
<div class="ToggleTriggerAnchor bbCodeSpoilerContainer">
<button type="button" class="button bbCodeSpoilerButton ToggleTrigger Tooltip JsOnly" data-target="> .SpoilerTarget"><span>Spoiler: <span class="SpoilerTitle">Media Information</span></span></button>
<div class="SpoilerTarget bbCodeSpoilerText">General<br>
Complete name : Turtles.All.the.Way.Down.2024.1080p.MAX.WEB-DL.DDP5.1.Atmos.x264-Samuel.mkv<br>
Format : Matroska<br>
Format version : Version 4<br>
File size : 7.62 GiB<br>
Duration : 1 h 51 min<br>
Overall bit rate mode : Variable<br>
Overall bit rate : 9 803 kb/s<br>
Frame rate : 23.976 FPS<br>
Encoded date : 2024-05-04 07:40:00 UTC<br>
Writing application : mkvmerge v84.0 ('Sleeper') 64-bit<br>
Writing library : libebml v1.4.5 + libmatroska v1.7.1<br>
<br>
Video<br>
ID : 1<br>
Format : AVC<br>
Format/Info : Advanced Video Codec<br>
Format profile : High@L4.1<br>
Format settings : CABAC / 4 Ref Frames<br>
Format settings, CABAC : Yes<br>
Format settings, Reference frames : 4 frames<br>
Codec ID : V_MPEG4/ISO/AVC<br>
Duration : 1 h 51 min<br>
Bit rate mode : Variable<br>
Bit rate : 7 878 kb/s<br>
Maximum bit rate : 10 000 kb/s<br>
Width : 1 920 pixels<br>
Height : 1 038 pixels<br>
Display aspect ratio : 1.85:1<br>
Frame rate mode : Constant<br>
Frame rate : 23.976 (24000/1001) FPS<br>
Color space : YUV<br>
Chroma subsampling : 4:2:0<br>
Bit depth : 8 bits<br>
Scan type : Progressive<br>
Bits/(Pixel*Frame) : 0.165<br>
Stream size : 6.13 GiB (80%)<br>
Writing library : x264 core 164<br>
Encoding settings : cabac=1 / ref=4 / deblock=1:0:0 / analyse=0x3:0x133 / me=umh / subme=10 / psy=1 / psy_rd=1.00:0.00 / mixed_ref=1 / me_range=24 / chroma_me=1 / trellis=2 / 8x8dct=1 / cqm=0 / deadzone=21,11 / fast_pskip=1 / chroma_qp_offset=-2 / threads=24 / lookahead_threads=2 / sliced_threads=0 / nr=0 / decimate=1 / interlaced=0 / bluray_compat=0 / stitchable=1 / constrained_intra=0 / bframes=3 / b_pyramid=2 / b_adapt=2 / b_bias=0 / direct=3 / weightb=1 / open_gop=0 / weightp=2 / keyint=96 / keyint_min=49 / scenecut=0 / intra_refresh=0 / rc_lookahead=96 / rc=crf / mbtree=1 / crf=20.0 / qcomp=0.60 / qpmin=0 / qpmax=69 / qpstep=4 / vbv_maxrate=10000 / vbv_bufsize=40000 / crf_max=0.0 / nal_hrd=vbr / filler=0 / ip_ratio=1.40 / aq=1:1.00<br>
Default : Yes<br>
Forced : No<br>
Color range : Limited<br>
Color primaries : BT.709<br>
Transfer characteristics : BT.709<br>
Matrix coefficients : BT.709<br>
<br>
Audio #1<br>
ID : 2<br>
Format : E-AC-3 JOC<br>
Format/Info : Enhanced AC-3 with Joint Object Coding<br>
Commercial name : Dolby Digital Plus with Dolby Atmos<br>
Codec ID : A_EAC3<br>
Duration : 1 h 51 min<br>
Bit rate mode : Constant<br>
Bit rate : 640 kb/s<br>
Channel(s) : 6 channels<br>
Channel layout : L R C LFE Ls Rs<br>
Sampling rate : 48.0 kHz<br>
Frame rate : 31.250 FPS (1536 SPF)<br>
Compression mode : Lossy<br>
Stream size : 510 MiB (7%)<br>
Language : English<br>
Service kind : Complete Main<br>
Default : Yes<br>
Forced : No<br>
Complexity index : 16<br>
Number of dynamic objects : 15<br>
Bed channel count : 1 channel<br>
Bed channel configuration : LFE<br>
Dialog Normalization : -28 dB<br>
compr : -0.28 dB<br>
dmixmod : Lo/Ro<br>
ltrtcmixlev : -3.0 dB<br>
ltrtsurmixlev : -3.0 dB<br>
lorocmixlev : -3.0 dB<br>
lorosurmixlev : -3.0 dB<br>
dialnorm_Average : -28 dB<br>
dialnorm_Minimum : -28 dB<br>
dialnorm_Maximum : -28 dB<br>
<br>
Audio #2<br>
ID : 3<br>
Format : E-AC-3<br>
Format/Info : Enhanced AC-3<br>
Commercial name : Dolby Digital Plus<br>
Codec ID : A_EAC3<br>
Duration : 1 h 51 min<br>
Bit rate mode : Constant<br>
Bit rate : 256 kb/s<br>
Channel(s) : 6 channels<br>
Channel layout : L R C LFE Ls Rs<br>
Sampling rate : 48.0 kHz<br>
Frame rate : 31.250 FPS (1536 SPF)<br>
Compression mode : Lossy<br>
Stream size : 204 MiB (3%)<br>
Title : Audio Description<br>
Language : English<br>
Service kind : Complete Main<br>
Default : No<br>
Forced : No<br>
Dialog Normalization : -23 dB<br>
compr : -0.28 dB<br>
dmixmod : Lo/Ro<br>
ltrtcmixlev : -3.0 dB<br>
ltrtsurmixlev : -3.0 dB<br>
lorocmixlev : -3.0 dB<br>
lorosurmixlev : -3.0 dB<br>
dialnorm_Average : -23 dB<br>
dialnorm_Minimum : -23 dB<br>
dialnorm_Maximum : -23 dB<br>
<br>
Audio #3<br>
ID : 4<br>
Format : E-AC-3<br>
Format/Info : Enhanced AC-3<br>
Commercial name : Dolby Digital Plus<br>
Codec ID : A_EAC3<br>
Duration : 1 h 51 min<br>
Bit rate mode : Constant<br>
Bit rate : 256 kb/s<br>
Channel(s) : 6 channels<br>
Channel layout : L R C LFE Ls Rs<br>
Sampling rate : 48.0 kHz<br>
Frame rate : 31.250 FPS (1536 SPF)<br>
Compression mode : Lossy<br>
Stream size : 204 MiB (3%)<br>
Language : Czech<br>
Service kind : Complete Main<br>
Default : No<br>
Forced : No<br>
Dialog Normalization : -23 dB<br>
compr : -0.28 dB<br>
dmixmod : Lo/Ro<br>
ltrtcmixlev : -3.0 dB<br>
ltrtsurmixlev : -3.0 dB<br>
lorocmixlev : -3.0 dB<br>
lorosurmixlev : -3.0 dB<br>
dialnorm_Average : -23 dB<br>
dialnorm_Minimum : -23 dB<br>
dialnorm_Maximum : -23 dB<br>
<br>
Audio #4<br>
ID : 5<br>
Format : E-AC-3<br>
Format/Info : Enhanced AC-3<br>
Commercial name : Dolby Digital Plus<br>
Codec ID : A_EAC3<br>
Duration : 1 h 51 min<br>
Bit rate mode : Constant<br>
Bit rate : 256 kb/s<br>
Channel(s) : 6 channels<br>
Channel layout : L R C LFE Ls Rs<br>
Sampling rate : 48.0 kHz<br>
Frame rate : 31.250 FPS (1536 SPF)<br>
Compression mode : Lossy<br>
Stream size : 204 MiB (3%)<br>
Title : Latin American<br>
Language : Spanish<br>
Service kind : Complete Main<br>
Default : No<br>
Forced : No<br>
Dialog Normalization : -23 dB<br>
compr : -0.28 dB<br>
dmixmod : Lo/Ro<br>
ltrtcmixlev : -3.0 dB<br>
ltrtsurmixlev : -3.0 dB<br>
lorocmixlev : -3.0 dB<br>
lorosurmixlev : -3.0 dB<br>
dialnorm_Average : -23 dB<br>
dialnorm_Minimum : -23 dB<br>
dialnorm_Maximum : -23 dB<br>
<br>
Audio #5<br>
ID : 6<br>
Format : E-AC-3<br>
Format/Info : Enhanced AC-3<br>
Commercial name : Dolby Digital Plus<br>
Codec ID : A_EAC3<br>
Duration : 1 h 51 min<br>
Bit rate mode : Constant<br>
Bit rate : 256 kb/s<br>
Channel(s) : 6 channels<br>
Channel layout : L R C LFE Ls Rs<br>
Sampling rate : 48.0 kHz<br>
Frame rate : 31.250 FPS (1536 SPF)<br>
Compression mode : Lossy<br>
Stream size : 204 MiB (3%)<br>
Title : European<br>
Language : Spanish<br>
Service kind : Complete Main<br>
Default : No<br>
Forced : No<br>
Dialog Normalization : -23 dB<br>
compr : -0.28 dB<br>
dmixmod : Lo/Ro<br>
ltrtcmixlev : -3.0 dB<br>
ltrtsurmixlev : -3.0 dB<br>
lorocmixlev : -3.0 dB<br>
lorosurmixlev : -3.0 dB<br>
dialnorm_Average : -23 dB<br>
dialnorm_Minimum : -23 dB<br>
dialnorm_Maximum : -23 dB<br>
<br>
Audio #6<br>
ID : 7<br>
Format : E-AC-3<br>
Format/Info : Enhanced AC-3<br>
Commercial name : Dolby Digital Plus<br>
Codec ID : A_EAC3<br>
Duration : 1 h 51 min<br>
Bit rate mode : Constant<br>
Bit rate : 256 kb/s<br>
Channel(s) : 6 channels<br>
Channel layout : L R C LFE Ls Rs<br>
Sampling rate : 48.0 kHz<br>
Frame rate : 31.250 FPS (1536 SPF)<br>
Compression mode : Lossy<br>
Stream size : 204 MiB (3%)<br>
Title : Brazilian<br>
Language : Portuguese<br>
Service kind : Complete Main<br>
Default : No<br>
Forced : No<br>
Dialog Normalization : -23 dB<br>
compr : -0.28 dB<br>
dmixmod : Lo/Ro<br>
ltrtcmixlev : -3.0 dB<br>
ltrtsurmixlev : -3.0 dB<br>
lorocmixlev : -3.0 dB<br>
lorosurmixlev : -3.0 dB<br>
dialnorm_Average : -23 dB<br>
dialnorm_Minimum : -23 dB<br>
dialnorm_Maximum : -23 dB<br>
<br>
Text #1<br>
ID : 8<br>
Format : UTF-8<br>
Codec ID : S_TEXT/UTF8<br>
Codec ID/Info : UTF-8 Plain Text<br>
Duration : 1 h 51 min<br>
Bit rate : 79 b/s<br>
Frame rate : 0.290 FPS<br>
Count of elements : 1936<br>
Stream size : 64.9 KiB (0%)<br>
Language : English<br>
Default : No<br>
Forced : No<br>
<br>
Text #2<br>
ID : 9<br>
Format : UTF-8<br>
Codec ID : S_TEXT/UTF8<br>
Codec ID/Info : UTF-8 Plain Text<br>
Duration : 1 h 50 min<br>
Bit rate : 104 b/s<br>
Frame rate : 0.243 FPS<br>
Count of elements : 1608<br>
Stream size : 84.2 KiB (0%)<br>
Language : Bulgarian<br>
Default : No<br>
Forced : No<br>
<br>
Text #3<br>
ID : 10<br>
Format : UTF-8<br>
Codec ID : S_TEXT/UTF8<br>
Codec ID/Info : UTF-8 Plain Text<br>
Duration : 1 h 46 min<br>
Bit rate : 58 b/s<br>
Frame rate : 0.211 FPS<br>
Count of elements : 1342<br>
Stream size : 45.8 KiB (0%)<br>
Language : Czech<br>
Default : No<br>
Forced : No<br>
<br>
Text #4<br>
ID : 11<br>
Format : UTF-8<br>
Codec ID : S_TEXT/UTF8<br>
Codec ID/Info : UTF-8 Plain Text<br>
Duration : 1 h 50 min<br>
Bit rate : 57 b/s<br>
Frame rate : 0.234 FPS<br>
Count of elements : 1552<br>
Stream size : 46.8 KiB (0%)<br>
Title : Latin American<br>
Language : Spanish<br>
Default : No<br>
Forced : No<br>
<br>
Text #5<br>
ID : 12<br>
Format : UTF-8<br>
Codec ID : S_TEXT/UTF8<br>
Codec ID/Info : UTF-8 Plain Text<br>
Duration : 1 h 50 min<br>
Bit rate : 65 b/s<br>
Frame rate : 0.230 FPS<br>
Count of elements : 1522<br>
Stream size : 52.8 KiB (0%)<br>
Title : European<br>
Language : Spanish<br>
Default : No<br>
Forced : No<br>
<br>
Text #6<br>
ID : 13<br>
Format : UTF-8<br>
Codec ID : S_TEXT/UTF8<br>
Codec ID/Info : UTF-8 Plain Text<br>
Duration : 1 h 50 min<br>
Bit rate : 113 b/s<br>
Frame rate : 0.243 FPS<br>
Count of elements : 1609<br>
Stream size : 92.2 KiB (0%)<br>
Language : Macedonian<br>
Default : No<br>
Forced : No<br>
<br>
Text #7<br>
ID : 14<br>
Format : UTF-8<br>
Codec ID : S_TEXT/UTF8<br>
Codec ID/Info : UTF-8 Plain Text<br>
Duration : 1 h 50 min<br>
Bit rate : 58 b/s<br>
Frame rate : 0.244 FPS<br>
Count of elements : 1613<br>
Stream size : 47.4 KiB (0%)<br>
Title : Brazilian<br>
Language : Portuguese<br>
Default : No<br>
Forced : No<br>
<br>
Menu<br>
01:47:39.995 : en:Credits</div>
</div><br>
<b>Screenshots</b><br>
<img src="https://i.imgur.com/sYIYRQO.png" class="bbCodeImage LbImage" alt="[​IMG]" data-url="https://i.imgur.com/sYIYRQO.png" style=""><br>
<br>
<b>Download</b><br>
<div class="bbCodeBlock bbCodeVfcHH HiddenContent">
<div class="attribution type">Hidden Content:</div>
<blockquote>You must reply before you can see the hidden data contained here.</blockquote>
</div></div>
<div class="messageTextEndMarker">&nbsp;</div>
</blockquote>
</article>]]></description>
                <author><![CDATA[Samuel]]></author>
                </item>

                </channel></rss>